<?xml version="1.0"?>
<svg xmlns="http://www.w3.org/2000/svg" height="512px" viewBox="0 0 56 56" width="512px" class=""><g><g id="Page-1" fill="none" fill-rule="evenodd"><g id="013---Oil-Spill" fill="rgb(0,0,0)" fill-rule="nonzero"><path id="Shape" d="m45.507 29h2.493v-4-3h-2.493z" data-original="#000000" class="active-path" data-old_color="#000000" fill="#FFFFFF"/><path id="Shape" d="m25.777 30.668c1.051-1.055 1.909-4.977 2.326-7.887-2.9.419-6.791 1.28-7.839 2.334-1.5334186 1.5223729-1.5423729 3.9995814-.02 5.533s3.9995814 1.5423729 5.533.02z" data-original="#000000" class="active-path" data-old_color="#000000" fill="#FFFFFF"/><path id="Shape" d="m34.1 2.81c1.1718214-1.12077448 3.0181786-1.12077448 4.19 0l4.852 4.875c1.1542239 1.16210127 1.1542239 3.0378987 0 4.2l-2.07 2.08 1.362 1.368 2.063-2.074c1.9057895-1.9231616 1.9057895-5.02283844 0-6.946l-4.857-4.878c-.9131594-.91845171-2.15485-1.43487974-3.45-1.43487974s-2.5368406.51642803-3.45 1.43487974l-2.07 2.08 1.361 1.368z" data-original="#000000" class="active-path" data-old_color="#000000" fill="#FFFFFF"/><path id="Shape" d="m54 52v1c0 .5522847-.4477153 1-1 1s-1-.4477153-1-1v-24c-.0015506-1.2709888-.8022983-2.4036464-2-2.829v26.829c0 .5522847-.4477153 1-1 1s-1-.4477153-1-1v-1h-6c-1.1045695 0-2 .8954305-2 2s.8954305 2 2 2h12c1.1045695 0 2-.8954305 2-2s-.8954305-2-2-2z" data-original="#000000" class="active-path" data-old_color="#000000" fill="#FFFFFF"/><path id="Shape" d="m10.212 26.579 14.273 14.342 14.273-14.342-14.273-14.342zm19.753-5.663c.2148079.2142319.3207479.5143955.288.816-.092.837-.958 8.237-3.058 10.348-1.104969 1.1112401-2.6073973 1.7360581-4.1745 1.7360581s-3.069531-.624818-4.1745-1.7360581c-2.2969362-2.3195863-2.2969362-6.0564137 0-8.376 2.1-2.112 9.469-2.982 10.3-3.075.3024499-.0339489.6038984.0716869.819.287z" data-original="#000000" class="active-path" data-old_color="#000000" fill="#FFFFFF"/><path id="Shape" d="m43.507 31.135v-10.666c.0028182-.7798127-.30566-1.5285111-.857-2.08l-.928-.932-13.169-13.233-1.389-1.4c-.5456684-.55029046-1.2885332-.85983194-2.0635-.85983194s-1.5178316.30954148-2.0635.85983194l-22.18 22.291c-1.14193333 1.1515684-1.14193333 3.0084316 0 4.16l20.752 20.853c1.1779337 1.1248304 3.0320663 1.1248304 4.21 0l16.831-16.913c.5477224-.5538938.8555564-1.3010289.857-2.08zm-2.63-3.85-15.392 15.467v4.511c0 .5522847-.4477153 1-1 1s-1-.4477153-1-1v-4.511l-15.1-15.173h-4.485c-.55228475 0-1-.4477153-1-1s.44771525-1 1-1h4.485l15.1-15.172v-4.507c0-.55228475.4477153-1 1-1s1 .44771525 1 1v4.512l15.392 15.462c.3883868.3901539.3883868 1.0208461 0 1.411z" data-original="#000000" class="active-path" data-old_color="#000000" fill="#FFFFFF"/></g></g></g> </svg>
